<svg width="500" height="500" xmlns="http://www.w3.org/2000/svg">
  <!-- Background -->
  <rect width="100%" height="100%" fill="#e9a200" opacity="0.1" />
  
  <!-- Vibrant Pattern Background -->
  <g opacity="0.2">
    <circle cx="100" cy="100" r="50" fill="#e9a200" />
    <circle cx="400" cy="100" r="40" fill="#e67700" />
    <circle cx="100" cy="400" r="40" fill="#f59f00" />
    <circle cx="400" cy="400" r="50" fill="#e67700" />
    <path d="M0,250 Q125,200 250,250 T500,250" stroke="#f59f00" stroke-width="5" fill="none" />
    <path d="M0,270 Q125,320 250,270 T500,270" stroke="#e67700" stroke-width="5" fill="none" />
  </g>
  
  <!-- Headphones -->
  <g transform="translate(110, 50)">
    <!-- Headband -->
    <path d="M50,50 C50,20 230,20 230,50" stroke="#333" stroke-width="15" fill="none" />
    
    <!-- Left Ear Cup -->
    <g transform="translate(0, 0)">
      <rect x="20" y="50" width="60" height="100" rx="30" fill="#1a1a1a" />
      <circle cx="50" cy="100" r="25" fill="#e9a200" />
      <path d="M35,100 C35,90 65,90 65,100 C65,110 35,110 35,100 Z" fill="#e67700" />
    </g>
    
    <!-- Right Ear Cup -->
    <g transform="translate(200, 0)">
      <rect x="0" y="50" width="60" height="100" rx="30" fill="#1a1a1a" />
      <circle cx="30" cy="100" r="25" fill="#e9a200" />
      <path d="M15,100 C15,90 45,90 45,100 C45,110 15,110 15,100 Z" fill="#e67700" />
    </g>
    
    <!-- Left Support -->
    <rect x="40" y="50" width="10" height="30" rx="5" fill="#333" />
    
    <!-- Right Support -->
    <rect x="230" y="50" width="10" height="30" rx="5" fill="#333" />
    
    <!-- Cable -->
    <path d="M50,150 C30,220 50,250 140,280" stroke="#333" stroke-width="3" fill="none" />
  </g>
  
  <!-- Brand Logo -->
  <g transform="translate(170, 300)">
    <circle cx="80" cy="20" r="40" fill="#e9a200" />
    <text x="80" y="25" font-family="sans-serif" font-size="14" font-weight="bold" text-anchor="middle">LAGOS</text>
    <text x="80" y="40" font-family="sans-serif" font-size="12" text-anchor="middle">BEATS</text>
  </g>
  
  <!-- African Pattern Accents -->
  <g stroke="#e67700" stroke-width="2" fill="none">
    <path d="M130,350 L150,350 L150,370 L130,370 Z" />
    <path d="M160,350 L180,350 L180,370 L160,370 Z" />
    <path d="M190,350 L210,350 L210,370 L190,370 Z" />
    <path d="M220,350 L240,350 L240,370 L220,370 Z" />
    <path d="M250,350 L270,350 L270,370 L250,370 Z" />
    <path d="M280,350 L300,350 L300,370 L280,370 Z" />
    <path d="M310,350 L330,350 L330,370 L310,370 Z" />
  </g>
  <g stroke="#f59f00" stroke-width="2" fill="none">
    <path d="M130,380 L150,380 L150,400 L130,400 Z" />
    <path d="M160,380 L180,380 L180,400 L160,400 Z" />
    <path d="M190,380 L210,380 L210,400 L190,400 Z" />
    <path d="M220,380 L240,380 L240,400 L220,400 Z" />
    <path d="M250,380 L270,380 L270,400 L250,400 Z" />
    <path d="M280,380 L300,380 L300,400 L280,400 Z" />
    <path d="M310,380 L330,380 L330,400 L310,400 Z" />
  </g>
  
  <!-- Product Name -->
  <text x="250" y="450" font-family="sans-serif" font-size="24" fill="#333" text-anchor="middle" font-weight="bold">LAGOS BEATS</text>
  <text x="250" y="475" font-family="sans-serif" font-size="14" fill="#666" text-anchor="middle">Premium Afrobeats Headphones</text>
</svg> 