<svg width="500" height="500" xmlns="http://www.w3.org/2000/svg">
  <!-- Background -->
  <rect width="100%" height="100%" fill="#1a1a1a" />
  
  <!-- Vinyl Album Cover -->
  <rect x="100" y="100" width="300" height="300" fill="#0047ab" />
  <rect x="110" y="110" width="280" height="280" fill="#000" stroke="#333" stroke-width="1" />
  
  <!-- NYC Skyline at Night -->
  <rect x="110" y="110" width="280" height="200" fill="#000" />
  
  <!-- Stars in the sky -->
  <g fill="white">
    <circle cx="120" cy="120" r="1" />
    <circle cx="150" cy="130" r="1" />
    <circle cx="200" cy="115" r="1" />
    <circle cx="250" cy="125" r="1" />
    <circle cx="300" cy="120" r="1" />
    <circle cx="350" cy="115" r="1" />
    <circle cx="370" cy="135" r="1" />
    <circle cx="180" cy="140" r="1" />
    <circle cx="230" cy="150" r="1" />
    <circle cx="290" cy="145" r="1" />
  </g>
  
  <!-- NYC Skyline Silhouette -->
  <path d="M110,250 L130,250 L130,230 L140,230 L140,210 L150,210 L150,220 L160,220 L160,200 L170,200 L170,180 L180,180 L180,190 L190,190 L190,170 L200,170 L200,150 L210,150 L210,180 L220,180 L220,160 L230,160 L230,200 L240,200 L240,170 L250,170 L250,190 L260,190 L260,210 L270,210 L270,180 L280,180 L280,150 L290,150 L290,220 L300,220 L300,190 L310,190 L310,160 L320,160 L320,170 L330,170 L330,200 L340,200 L340,210 L350,210 L350,230 L360,230 L360,250 L380,250" 
        fill="black" stroke="#333" stroke-width="1" />
        
  <!-- Windows in buildings (lit) -->
  <g fill="#ffcc00" opacity="0.8">
    <rect x="135" y="235" width="2" height="2" />
    <rect x="135" y="240" width="2" height="2" />
    <rect x="145" y="215" width="2" height="2" />
    <rect x="145" y="225" width="2" height="2" />
    <rect x="165" y="210" width="2" height="2" />
    <rect x="175" y="185" width="2" height="2" />
    <rect x="195" y="175" width="2" height="2" />
    <rect x="205" y="160" width="2" height="2" />
    <rect x="215" y="185" width="2" height="2" />
    <rect x="235" y="170" width="2" height="2" />
    <rect x="235" y="180" width="2" height="2" />
    <rect x="245" y="175" width="2" height="2" />
    <rect x="255" y="195" width="2" height="2" />
    <rect x="265" y="215" width="2" height="2" />
    <rect x="275" y="185" width="2" height="2" />
    <rect x="285" y="170" width="2" height="2" />
    <rect x="295" y="230" width="2" height="2" />
    <rect x="305" y="200" width="2" height="2" />
    <rect x="315" y="165" width="2" height="2" />
    <rect x="325" y="175" width="2" height="2" />
    <rect x="335" y="205" width="2" height="2" />
    <rect x="345" y="215" width="2" height="2" />
    <rect x="355" y="235" width="2" height="2" />
  </g>
  
  <!-- Track List -->
  <text x="130" y="275" font-family="sans-serif" font-size="14" fill="white" font-weight="bold">TRACK LIST:</text>
  <text x="130" y="295" font-family="sans-serif" font-size="10" fill="#ccc">1. Concrete Jungle</text>
  <text x="130" y="310" font-family="sans-serif" font-size="10" fill="#ccc">2. Brooklyn Nights</text>
  <text x="130" y="325" font-family="sans-serif" font-size="10" fill="#ccc">3. Subway Cypher</text>
  <text x="130" y="340" font-family="sans-serif" font-size="10" fill="#ccc">4. Harlem Heat</text>
  <text x="130" y="355" font-family="sans-serif" font-size="10" fill="#ccc">5. Queens Bridge</text>
  
  <text x="270" y="295" font-family="sans-serif" font-size="10" fill="#ccc">6. Uptown Flow</text>
  <text x="270" y="310" font-family="sans-serif" font-size="10" fill="#ccc">7. The Bronx Tale</text>
  <text x="270" y="325" font-family="sans-serif" font-size="10" fill="#ccc">8. Manhattan Lights</text>
  <text x="270" y="340" font-family="sans-serif" font-size="10" fill="#ccc">9. Staten Island Groove</text>
  <text x="270" y="355" font-family="sans-serif" font-size="10" fill="#ccc">10. City That Never Sleeps</text>
  
  <!-- Culture Drop Logo -->
  <text x="250" y="380" font-family="sans-serif" font-size="12" fill="white" text-anchor="middle">CULTURE DROP RECORDS</text>
</svg> 