<svg width="500" height="500" xmlns="http://www.w3.org/2000/svg">
  <!-- Background -->
  <rect width="100%" height="100%" fill="#1a1a1a" />
  
  <!-- Vinyl Record -->
  <circle cx="250" cy="250" r="200" fill="#111" stroke="#333" stroke-width="2" />
  <circle cx="250" cy="250" r="198" fill="none" stroke="#222" stroke-width="1" />
  <circle cx="250" cy="250" r="190" fill="none" stroke="#222" stroke-width="1" />
  <circle cx="250" cy="250" r="180" fill="none" stroke="#222" stroke-width="1" />
  <circle cx="250" cy="250" r="170" fill="none" stroke="#222" stroke-width="1" />
  <circle cx="250" cy="250" r="160" fill="none" stroke="#222" stroke-width="1" />
  <circle cx="250" cy="250" r="150" fill="none" stroke="#222" stroke-width="1" />
  <circle cx="250" cy="250" r="140" fill="none" stroke="#222" stroke-width="1" />
  <circle cx="250" cy="250" r="130" fill="none" stroke="#222" stroke-width="1" />
  <circle cx="250" cy="250" r="120" fill="none" stroke="#222" stroke-width="1" />
  <circle cx="250" cy="250" r="110" fill="none" stroke="#222" stroke-width="1" />
  <circle cx="250" cy="250" r="60" fill="#222" stroke="#333" stroke-width="1" />
  <circle cx="250" cy="250" r="10" fill="#111" stroke="#333" stroke-width="1" />
  
  <!-- NYC Underground Label -->
  <circle cx="250" cy="250" r="100" fill="#0047ab" />
  
  <!-- NYC Skyline Silhouette -->
  <path d="M170,220 L175,210 L180,215 L185,200 L190,205 L195,190 L200,210 L210,200 L215,195 L220,180 L225,185 L230,175 L235,190 L240,185 L245,180 L250,175 L255,180 L260,185 L265,175 L270,180 L275,170 L280,190 L285,185 L290,200 L295,195 L300,205 L305,200 L310,215 L315,210 L320,220" 
        fill="none" stroke="white" stroke-width="3" />
        
  <!-- Hip Hop Text -->
  <text x="250" y="240" font-family="sans-serif" font-size="16" fill="white" text-anchor="middle" font-weight="bold">NYC UNDERGROUND</text>
  <text x="250" y="270" font-family="sans-serif" font-size="14" fill="white" text-anchor="middle">HIP-HOP ANTHOLOGY</text>
  
  <!-- Record Label Details -->
  <text x="250" y="290" font-family="sans-serif" font-size="8" fill="#ccc" text-anchor="middle">CULTURE DROP RECORDS · 2025</text>
</svg> 